<svg width="1623" height="41" viewBox="0 0 1623 41" fill="none" xmlns="http://www.w3.org/2000/svg">
<path d="M13.504 33.384C11.7973 33.384 10.2187 33.0747 8.768 32.456C7.33867 31.8373 6.08 30.9733 4.992 29.864C3.92533 28.7547 3.09333 27.4533 2.496 25.96C1.89867 24.4667 1.6 22.8347 1.6 21.064C1.6 19.2933 1.888 17.6613 2.464 16.168C3.06133 14.6533 3.89333 13.352 4.96 12.264C6.048 11.1547 7.31733 10.3013 8.768 9.704C10.2187 9.08533 11.7973 8.776 13.504 8.776C15.2107 8.776 16.736 9.064 18.08 9.64C19.4453 10.216 20.5973 10.984 21.536 11.944C22.4747 12.8827 23.1467 13.9173 23.552 15.048L19.648 16.872C19.2 15.6773 18.4427 14.696 17.376 13.928C16.3093 13.1387 15.0187 12.744 13.504 12.744C12.0107 12.744 10.688 13.096 9.536 13.8C8.40533 14.504 7.52 15.4747 6.88 16.712C6.26133 17.9493 5.952 19.4 5.952 21.064C5.952 22.728 6.26133 24.1893 6.88 25.448C7.52 26.6853 8.40533 27.656 9.536 28.36C10.688 29.064 12.0107 29.416 13.504 29.416C15.0187 29.416 16.3093 29.032 17.376 28.264C18.4427 27.4747 19.2 26.4827 19.648 25.288L23.552 27.112C23.1467 28.2427 22.4747 29.288 21.536 30.248C20.5973 31.1867 19.4453 31.944 18.08 32.52C16.736 33.096 15.2107 33.384 13.504 33.384ZM26.7333 33V15.592H30.6693V19.464L30.3493 18.888C30.7546 17.5867 31.3839 16.68 32.2373 16.168C33.1119 15.656 34.1573 15.4 35.3733 15.4H36.3973V19.112H34.8933C33.6986 19.112 32.7386 19.4853 32.0133 20.232C31.2879 20.9573 30.9253 21.9813 30.9253 23.304V33H26.7333ZM46.958 33.384C45.166 33.384 43.598 32.9787 42.254 32.168C40.91 31.3573 39.8647 30.2587 39.118 28.872C38.3713 27.4853 37.998 25.9493 37.998 24.264C37.998 22.5147 38.3713 20.968 39.118 19.624C39.886 18.2587 40.9207 17.1813 42.222 16.392C43.5447 15.6027 45.0167 15.208 46.638 15.208C48.0033 15.208 49.198 15.432 50.222 15.88C51.2673 16.328 52.1527 16.9467 52.878 17.736C53.6033 18.5253 54.158 19.432 54.542 20.456C54.926 21.4587 55.118 22.5467 55.118 23.72C55.118 24.0187 55.0967 24.328 55.054 24.648C55.0327 24.968 54.9793 25.2453 54.894 25.48H41.454V22.28H52.526L50.542 23.784C50.734 22.8027 50.6807 21.928 50.382 21.16C50.1047 20.392 49.6353 19.784 48.974 19.336C48.334 18.888 47.5553 18.664 46.638 18.664C45.7633 18.664 44.9847 18.888 44.302 19.336C43.6193 19.7627 43.0967 20.4027 42.734 21.256C42.3927 22.088 42.2647 23.1013 42.35 24.296C42.2647 25.3627 42.4033 26.312 42.766 27.144C43.15 27.9547 43.7047 28.584 44.43 29.032C45.1767 29.48 46.03 29.704 46.99 29.704C47.95 29.704 48.7607 29.5013 49.422 29.096C50.1047 28.6907 50.638 28.1467 51.022 27.464L54.414 29.128C54.0727 29.96 53.5393 30.696 52.814 31.336C52.0887 31.976 51.2247 32.4773 50.222 32.84C49.2407 33.2027 48.1527 33.384 46.958 33.384ZM63.5133 33.384C62.2973 33.384 61.2413 33.1813 60.3453 32.776C59.4493 32.3707 58.7559 31.7947 58.2653 31.048C57.7746 30.28 57.5293 29.3947 57.5293 28.392C57.5293 27.432 57.7426 26.5787 58.1693 25.832C58.5959 25.064 59.2573 24.424 60.1533 23.912C61.0493 23.4 62.1799 23.0373 63.5453 22.824L69.2413 21.896V25.096L64.3453 25.928C63.5133 26.0773 62.8946 26.344 62.4893 26.728C62.0839 27.112 61.8813 27.6133 61.8813 28.232C61.8813 28.8293 62.1053 29.3093 62.5533 29.672C63.0226 30.0133 63.5986 30.184 64.2812 30.184C65.1559 30.184 65.9239 30.0027 66.5853 29.64C67.2679 29.256 67.7906 28.7333 68.1533 28.072C68.5373 27.4107 68.7293 26.6853 68.7293 25.896V21.416C68.7293 20.6693 68.4306 20.0507 67.8333 19.56C67.2573 19.048 66.4893 18.792 65.5293 18.792C64.6333 18.792 63.8333 19.0373 63.1293 19.528C62.4466 19.9973 61.9453 20.6267 61.6253 21.416L58.2013 19.752C58.5426 18.8347 59.0759 18.0453 59.8013 17.384C60.5479 16.7013 61.4226 16.168 62.4253 15.784C63.4279 15.4 64.5159 15.208 65.6892 15.208C67.1186 15.208 68.3773 15.4747 69.4653 16.008C70.5533 16.52 71.3959 17.2453 71.9933 18.184C72.6119 19.1013 72.9213 20.1787 72.9213 21.416V33H68.9533V30.024L69.8493 29.96C69.4013 30.7067 68.8679 31.336 68.2493 31.848C67.6306 32.3387 66.9266 32.7227 66.1373 33C65.3479 33.256 64.4733 33.384 63.5133 33.384ZM84.4193 33.192C82.4566 33.192 80.9313 32.6587 79.8433 31.592C78.7766 30.504 78.2433 28.9787 78.2433 27.016V19.336H75.2353V15.592H75.5553C76.4086 15.592 77.0699 15.368 77.5393 14.92C78.0086 14.472 78.2433 13.8213 78.2433 12.968V11.624H82.4353V15.592H86.4353V19.336H82.4353V26.792C82.4353 27.368 82.5313 27.8587 82.7233 28.264C82.9366 28.6693 83.2566 28.9787 83.6833 29.192C84.1313 29.4053 84.6966 29.512 85.3793 29.512C85.5286 29.512 85.6993 29.5013 85.8913 29.48C86.1046 29.4587 86.3073 29.4373 86.4993 29.416V33C86.2006 33.0427 85.8593 33.0853 85.4753 33.128C85.0913 33.1707 84.7393 33.192 84.4193 33.192ZM89.702 33V15.592H93.894V33H89.702ZM89.702 13.64V9.16H93.894V13.64H89.702ZM103.013 33L96.1645 15.592H100.741L105.701 29.288H104.005L108.997 15.592H113.573L106.725 33H103.013ZM123.833 33.384C122.041 33.384 120.473 32.9787 119.129 32.168C117.785 31.3573 116.74 30.2587 115.993 28.872C115.246 27.4853 114.873 25.9493 114.873 24.264C114.873 22.5147 115.246 20.968 115.993 19.624C116.761 18.2587 117.796 17.1813 119.097 16.392C120.42 15.6027 121.892 15.208 123.513 15.208C124.878 15.208 126.073 15.432 127.097 15.88C128.142 16.328 129.028 16.9467 129.753 17.736C130.478 18.5253 131.033 19.432 131.417 20.456C131.801 21.4587 131.993 22.5467 131.993 23.72C131.993 24.0187 131.972 24.328 131.929 24.648C131.908 24.968 131.854 25.2453 131.769 25.48H118.329V22.28H129.401L127.417 23.784C127.609 22.8027 127.556 21.928 127.257 21.16C126.98 20.392 126.51 19.784 125.849 19.336C125.209 18.888 124.43 18.664 123.513 18.664C122.638 18.664 121.86 18.888 121.177 19.336C120.494 19.7627 119.972 20.4027 119.609 21.256C119.268 22.088 119.14 23.1013 119.225 24.296C119.14 25.3627 119.278 26.312 119.641 27.144C120.025 27.9547 120.58 28.584 121.305 29.032C122.052 29.48 122.905 29.704 123.865 29.704C124.825 29.704 125.636 29.5013 126.297 29.096C126.98 28.6907 127.513 28.1467 127.897 27.464L131.289 29.128C130.948 29.96 130.414 30.696 129.689 31.336C128.964 31.976 128.1 32.4773 127.097 32.84C126.116 33.2027 125.028 33.384 123.833 33.384ZM141.21 33V9.16H148.986C151.504 9.16 153.69 9.672 155.546 10.696C157.424 11.6987 158.874 13.096 159.898 14.888C160.922 16.6587 161.434 18.7173 161.434 21.064C161.434 23.3893 160.922 25.4587 159.898 27.272C158.874 29.064 157.424 30.472 155.546 31.496C153.69 32.4987 151.504 33 148.986 33H141.21ZM145.562 29.16H149.082C150.704 29.16 152.101 28.8293 153.274 28.168C154.469 27.4853 155.397 26.5467 156.058 25.352C156.72 24.136 157.05 22.7067 157.05 21.064C157.05 19.4 156.72 17.9707 156.058 16.776C155.397 15.5813 154.469 14.6533 153.274 13.992C152.101 13.3307 150.704 13 149.082 13H145.562V29.16ZM172.802 33.384C171.01 33.384 169.442 32.9787 168.098 32.168C166.754 31.3573 165.708 30.2587 164.962 28.872C164.215 27.4853 163.842 25.9493 163.842 24.264C163.842 22.5147 164.215 20.968 164.962 19.624C165.73 18.2587 166.764 17.1813 168.066 16.392C169.388 15.6027 170.86 15.208 172.482 15.208C173.847 15.208 175.042 15.432 176.066 15.88C177.111 16.328 177.996 16.9467 178.722 17.736C179.447 18.5253 180.002 19.432 180.386 20.456C180.77 21.4587 180.962 22.5467 180.962 23.72C180.962 24.0187 180.94 24.328 180.898 24.648C180.876 24.968 180.823 25.2453 180.738 25.48H167.298V22.28H178.37L176.386 23.784C176.578 22.8027 176.524 21.928 176.226 21.16C175.948 20.392 175.479 19.784 174.818 19.336C174.178 18.888 173.399 18.664 172.482 18.664C171.607 18.664 170.828 18.888 170.146 19.336C169.463 19.7627 168.94 20.4027 168.578 21.256C168.236 22.088 168.108 23.1013 168.194 24.296C168.108 25.3627 168.247 26.312 168.61 27.144C168.994 27.9547 169.548 28.584 170.274 29.032C171.02 29.48 171.874 29.704 172.834 29.704C173.794 29.704 174.604 29.5013 175.266 29.096C175.948 28.6907 176.482 28.1467 176.866 27.464L180.258 29.128C179.916 29.96 179.383 30.696 178.658 31.336C177.932 31.976 177.068 32.4773 176.066 32.84C175.084 33.2027 173.996 33.384 172.802 33.384ZM190.764 33.384C188.908 33.384 187.286 32.9467 185.9 32.072C184.534 31.176 183.596 29.9707 183.084 28.456L186.22 26.952C186.668 27.9333 187.286 28.7013 188.076 29.256C188.886 29.8107 189.782 30.088 190.764 30.088C191.532 30.088 192.14 29.9173 192.588 29.576C193.036 29.2347 193.26 28.7867 193.26 28.232C193.26 27.8907 193.164 27.6133 192.972 27.4C192.801 27.1653 192.556 26.9733 192.236 26.824C191.937 26.6533 191.606 26.5147 191.244 26.408L188.396 25.608C186.924 25.1813 185.804 24.5307 185.036 23.656C184.289 22.7813 183.916 21.7467 183.916 20.552C183.916 19.4853 184.182 18.5573 184.716 17.768C185.27 16.9573 186.028 16.328 186.988 15.88C187.969 15.432 189.089 15.208 190.348 15.208C191.99 15.208 193.441 15.6027 194.7 16.392C195.958 17.1813 196.854 18.2907 197.388 19.72L194.188 21.224C193.889 20.4347 193.388 19.8053 192.684 19.336C191.98 18.8667 191.19 18.632 190.316 18.632C189.612 18.632 189.057 18.792 188.652 19.112C188.246 19.432 188.044 19.848 188.044 20.36C188.044 20.68 188.129 20.9573 188.3 21.192C188.47 21.4267 188.705 21.6187 189.004 21.768C189.324 21.9173 189.686 22.056 190.092 22.184L192.876 23.016C194.305 23.4427 195.404 24.0827 196.172 24.936C196.961 25.7893 197.356 26.8347 197.356 28.072C197.356 29.1173 197.078 30.0453 196.524 30.856C195.969 31.6453 195.201 32.264 194.22 32.712C193.238 33.16 192.086 33.384 190.764 33.384ZM200.577 33V15.592H204.769V33H200.577ZM200.577 13.64V9.16H204.769V13.64H200.577ZM217.088 40.04C215.786 40.04 214.581 39.8267 213.472 39.4C212.362 38.9733 211.402 38.376 210.592 37.608C209.802 36.8613 209.226 35.976 208.864 34.952L212.768 33.48C213.024 34.2907 213.525 34.9413 214.272 35.432C215.04 35.944 215.978 36.2 217.088 36.2C217.941 36.2 218.688 36.04 219.328 35.72C219.989 35.4 220.501 34.9307 220.864 34.312C221.226 33.7147 221.408 32.9893 221.408 32.136V28.168L222.208 29.128C221.61 30.1733 220.81 30.9627 219.808 31.496C218.805 32.0293 217.664 32.296 216.384 32.296C214.762 32.296 213.312 31.9227 212.032 31.176C210.752 30.4293 209.749 29.4053 209.024 28.104C208.298 26.8027 207.936 25.3413 207.936 23.72C207.936 22.0773 208.298 20.616 209.024 19.336C209.749 18.056 210.741 17.0533 212 16.328C213.258 15.5813 214.688 15.208 216.288 15.208C217.589 15.208 218.73 15.4853 219.712 16.04C220.714 16.5733 221.546 17.352 222.208 18.376L221.632 19.432V15.592H225.6V32.136C225.6 33.6507 225.226 35.0053 224.48 36.2C223.754 37.3947 222.752 38.3333 221.472 39.016C220.213 39.6987 218.752 40.04 217.088 40.04ZM216.896 28.424C217.792 28.424 218.57 28.232 219.232 27.848C219.914 27.4427 220.448 26.888 220.832 26.184C221.216 25.48 221.408 24.6693 221.408 23.752C221.408 22.856 221.205 22.056 220.8 21.352C220.416 20.6267 219.882 20.0613 219.2 19.656C218.538 19.2507 217.77 19.048 216.896 19.048C216.021 19.048 215.232 19.2507 214.528 19.656C213.824 20.0613 213.269 20.6267 212.864 21.352C212.48 22.056 212.288 22.856 212.288 23.752C212.288 24.648 212.48 25.448 212.864 26.152C213.269 26.856 213.813 27.4107 214.496 27.816C215.2 28.2213 216 28.424 216.896 28.424ZM229.515 33V15.592H233.451V19.016L233.131 18.408C233.536 17.3627 234.197 16.5733 235.115 16.04C236.053 15.4853 237.141 15.208 238.379 15.208C239.659 15.208 240.789 15.4853 241.771 16.04C242.773 16.5947 243.552 17.3733 244.107 18.376C244.661 19.3573 244.939 20.4987 244.939 21.8V33H240.747V22.792C240.747 22.024 240.597 21.3627 240.299 20.808C240 20.2533 239.584 19.8267 239.051 19.528C238.539 19.208 237.931 19.048 237.227 19.048C236.544 19.048 235.936 19.208 235.403 19.528C234.869 19.8267 234.453 20.2533 234.155 20.808C233.856 21.3627 233.707 22.024 233.707 22.792V33H229.515Z" fill="white"/>
<path d="M281.454 15.5442C279.253 13.3426 277.746 9.49804 276.999 6C276.25 9.49875 274.745 13.3441 272.544 15.5457C270.343 17.7457 266.497 19.2521 263 20.0012C266.499 20.7487 270.344 22.2542 272.545 24.4558C274.745 26.6566 276.252 30.502 277 34C277.748 30.5012 279.254 26.6559 281.454 24.4543C283.655 22.2535 287.501 20.7479 290.998 19.9988C287.5 19.2513 283.655 17.745 281.454 15.5442Z" fill="#9EFF7C"/>
<path d="M309.302 33V9.16H317.078C319.595 9.16 321.782 9.672 323.638 10.696C325.515 11.6987 326.966 13.096 327.99 14.888C329.014 16.6587 329.526 18.7173 329.526 21.064C329.526 23.3893 329.014 25.4587 327.99 27.272C326.966 29.064 325.515 30.472 323.638 31.496C321.782 32.4987 319.595 33 317.078 33H309.302ZM313.654 29.16H317.174C318.795 29.16 320.193 28.8293 321.366 28.168C322.561 27.4853 323.489 26.5467 324.15 25.352C324.811 24.136 325.142 22.7067 325.142 21.064C325.142 19.4 324.811 17.9707 324.15 16.776C323.489 15.5813 322.561 14.6533 321.366 13.992C320.193 13.3307 318.795 13 317.174 13H313.654V29.16ZM340.894 33.384C339.102 33.384 337.534 32.9787 336.19 32.168C334.846 31.3573 333.8 30.2587 333.054 28.872C332.307 27.4853 331.934 25.9493 331.934 24.264C331.934 22.5147 332.307 20.968 333.054 19.624C333.822 18.2587 334.856 17.1813 336.158 16.392C337.48 15.6027 338.952 15.208 340.574 15.208C341.939 15.208 343.134 15.432 344.158 15.88C345.203 16.328 346.088 16.9467 346.814 17.736C347.539 18.5253 348.094 19.432 348.478 20.456C348.862 21.4587 349.054 22.5467 349.054 23.72C349.054 24.0187 349.032 24.328 348.99 24.648C348.968 24.968 348.915 25.2453 348.83 25.48H335.39V22.28H346.462L344.478 23.784C344.67 22.8027 344.616 21.928 344.318 21.16C344.04 20.392 343.571 19.784 342.91 19.336C342.27 18.888 341.491 18.664 340.574 18.664C339.699 18.664 338.92 18.888 338.238 19.336C337.555 19.7627 337.032 20.4027 336.67 21.256C336.328 22.088 336.2 23.1013 336.286 24.296C336.2 25.3627 336.339 26.312 336.702 27.144C337.086 27.9547 337.64 28.584 338.366 29.032C339.112 29.48 339.966 29.704 340.926 29.704C341.886 29.704 342.696 29.5013 343.358 29.096C344.04 28.6907 344.574 28.1467 344.958 27.464L348.35 29.128C348.008 29.96 347.475 30.696 346.75 31.336C346.024 31.976 345.16 32.4773 344.158 32.84C343.176 33.2027 342.088 33.384 340.894 33.384ZM357.167 33L350.319 15.592H354.895L359.855 29.288H358.159L363.151 15.592H367.727L360.879 33H357.167ZM377.987 33.384C376.195 33.384 374.627 32.9787 373.283 32.168C371.939 31.3573 370.894 30.2587 370.147 28.872C369.401 27.4853 369.027 25.9493 369.027 24.264C369.027 22.5147 369.401 20.968 370.147 19.624C370.915 18.2587 371.95 17.1813 373.251 16.392C374.574 15.6027 376.046 15.208 377.667 15.208C379.033 15.208 380.227 15.432 381.251 15.88C382.297 16.328 383.182 16.9467 383.907 17.736C384.633 18.5253 385.187 19.432 385.571 20.456C385.955 21.4587 386.147 22.5467 386.147 23.72C386.147 24.0187 386.126 24.328 386.083 24.648C386.062 24.968 386.009 25.2453 385.923 25.48H372.483V22.28H383.555L381.571 23.784C381.763 22.8027 381.71 21.928 381.411 21.16C381.134 20.392 380.665 19.784 380.003 19.336C379.363 18.888 378.585 18.664 377.667 18.664C376.793 18.664 376.014 18.888 375.331 19.336C374.649 19.7627 374.126 20.4027 373.763 21.256C373.422 22.088 373.294 23.1013 373.379 24.296C373.294 25.3627 373.433 26.312 373.795 27.144C374.179 27.9547 374.734 28.584 375.459 29.032C376.206 29.48 377.059 29.704 378.019 29.704C378.979 29.704 379.79 29.5013 380.451 29.096C381.134 28.6907 381.667 28.1467 382.051 27.464L385.443 29.128C385.102 29.96 384.569 30.696 383.843 31.336C383.118 31.976 382.254 32.4773 381.251 32.84C380.27 33.2027 379.182 33.384 377.987 33.384ZM389.325 33V8.776H393.517V33H389.325ZM405.9 33.384C404.193 33.384 402.636 32.9893 401.228 32.2C399.841 31.4107 398.732 30.3333 397.9 28.968C397.089 27.6027 396.684 26.0453 396.684 24.296C396.684 22.5467 397.089 20.9893 397.9 19.624C398.732 18.2587 399.841 17.1813 401.228 16.392C402.614 15.6027 404.172 15.208 405.9 15.208C407.606 15.208 409.153 15.6027 410.54 16.392C411.926 17.1813 413.025 18.2587 413.836 19.624C414.668 20.968 415.084 22.5253 415.084 24.296C415.084 26.0453 414.668 27.6027 413.836 28.968C413.004 30.3333 411.894 31.4107 410.508 32.2C409.121 32.9893 407.585 33.384 405.9 33.384ZM405.9 29.544C406.838 29.544 407.66 29.32 408.364 28.872C409.089 28.424 409.654 27.8053 410.06 27.016C410.486 26.2053 410.7 25.2987 410.7 24.296C410.7 23.272 410.486 22.376 410.06 21.608C409.654 20.8187 409.089 20.2 408.364 19.752C407.66 19.2827 406.838 19.048 405.9 19.048C404.94 19.048 404.097 19.2827 403.372 19.752C402.646 20.2 402.07 20.8187 401.644 21.608C401.238 22.376 401.036 23.272 401.036 24.296C401.036 25.2987 401.238 26.2053 401.644 27.016C402.07 27.8053 402.646 28.424 403.372 28.872C404.097 29.32 404.94 29.544 405.9 29.544ZM418.263 39.4V15.592H422.199V19.048L421.815 18.184C422.412 17.2453 423.223 16.52 424.247 16.008C425.271 15.4747 426.455 15.208 427.799 15.208C429.441 15.208 430.924 15.6133 432.247 16.424C433.569 17.2347 434.615 18.3227 435.383 19.688C436.172 21.0533 436.567 22.5893 436.567 24.296C436.567 25.9813 436.183 27.5173 435.415 28.904C434.647 30.2907 433.601 31.3893 432.279 32.2C430.956 32.9893 429.452 33.384 427.767 33.384C426.508 33.384 425.345 33.1387 424.279 32.648C423.233 32.136 422.401 31.4107 421.783 30.472L422.455 29.64V39.4H418.263ZM427.287 29.544C428.247 29.544 429.1 29.32 429.847 28.872C430.593 28.424 431.169 27.8053 431.575 27.016C432.001 26.2267 432.215 25.32 432.215 24.296C432.215 23.272 432.001 22.376 431.575 21.608C431.169 20.8187 430.593 20.2 429.847 19.752C429.1 19.2827 428.247 19.048 427.287 19.048C426.369 19.048 425.537 19.272 424.791 19.72C424.065 20.168 423.489 20.7973 423.063 21.608C422.657 22.3973 422.455 23.2933 422.455 24.296C422.455 25.32 422.657 26.2267 423.063 27.016C423.489 27.8053 424.065 28.424 424.791 28.872C425.537 29.32 426.369 29.544 427.287 29.544ZM439.763 33V15.592H443.699V19.624L443.251 18.952C443.571 17.6933 444.211 16.7547 445.171 16.136C446.131 15.5173 447.261 15.208 448.563 15.208C449.992 15.208 451.251 15.5813 452.339 16.328C453.427 17.0747 454.131 18.056 454.451 19.272L453.267 19.368C453.8 17.9813 454.6 16.9467 455.667 16.264C456.733 15.56 457.96 15.208 459.347 15.208C460.584 15.208 461.683 15.4853 462.643 16.04C463.624 16.5947 464.392 17.3733 464.947 18.376C465.501 19.3573 465.779 20.4987 465.779 21.8V33H461.587V22.792C461.587 22.024 461.448 21.3627 461.171 20.808C460.893 20.2533 460.509 19.8267 460.019 19.528C459.528 19.208 458.931 19.048 458.227 19.048C457.565 19.048 456.979 19.208 456.467 19.528C455.955 19.8267 455.56 20.2533 455.283 20.808C455.005 21.3627 454.867 22.024 454.867 22.792V33H450.675V22.792C450.675 22.024 450.536 21.3627 450.259 20.808C449.981 20.2533 449.587 19.8267 449.075 19.528C448.584 19.208 447.997 19.048 447.315 19.048C446.653 19.048 446.067 19.208 445.555 19.528C445.043 19.8267 444.648 20.2533 444.371 20.808C444.093 21.3627 443.955 22.024 443.955 22.792V33H439.763ZM477.581 33.384C475.789 33.384 474.221 32.9787 472.877 32.168C471.533 31.3573 470.488 30.2587 469.741 28.872C468.994 27.4853 468.621 25.9493 468.621 24.264C468.621 22.5147 468.994 20.968 469.741 19.624C470.509 18.2587 471.544 17.1813 472.845 16.392C474.168 15.6027 475.64 15.208 477.261 15.208C478.626 15.208 479.821 15.432 480.845 15.88C481.89 16.328 482.776 16.9467 483.501 17.736C484.226 18.5253 484.781 19.432 485.165 20.456C485.549 21.4587 485.741 22.5467 485.741 23.72C485.741 24.0187 485.72 24.328 485.677 24.648C485.656 24.968 485.602 25.2453 485.517 25.48H472.077V22.28H483.149L481.165 23.784C481.357 22.8027 481.304 21.928 481.005 21.16C480.728 20.392 480.258 19.784 479.597 19.336C478.957 18.888 478.178 18.664 477.261 18.664C476.386 18.664 475.608 18.888 474.925 19.336C474.242 19.7627 473.72 20.4027 473.357 21.256C473.016 22.088 472.888 23.1013 472.973 24.296C472.888 25.3627 473.026 26.312 473.389 27.144C473.773 27.9547 474.328 28.584 475.053 29.032C475.8 29.48 476.653 29.704 477.613 29.704C478.573 29.704 479.384 29.5013 480.045 29.096C480.728 28.6907 481.261 28.1467 481.645 27.464L485.037 29.128C484.696 29.96 484.162 30.696 483.437 31.336C482.712 31.976 481.848 32.4773 480.845 32.84C479.864 33.2027 478.776 33.384 477.581 33.384ZM488.919 33V15.592H492.855V19.016L492.535 18.408C492.94 17.3627 493.601 16.5733 494.519 16.04C495.457 15.4853 496.545 15.208 497.783 15.208C499.063 15.208 500.193 15.4853 501.175 16.04C502.177 16.5947 502.956 17.3733 503.511 18.376C504.065 19.3573 504.343 20.4987 504.343 21.8V33H500.151V22.792C500.151 22.024 500.001 21.3627 499.703 20.808C499.404 20.2533 498.988 19.8267 498.455 19.528C497.943 19.208 497.335 19.048 496.631 19.048C495.948 19.048 495.34 19.208 494.807 19.528C494.273 19.8267 493.857 20.2533 493.559 20.808C493.26 21.3627 493.111 22.024 493.111 22.792V33H488.919ZM515.824 33.192C513.861 33.192 512.336 32.6587 511.248 31.592C510.181 30.504 509.648 28.9787 509.648 27.016V19.336H506.64V15.592H506.96C507.813 15.592 508.474 15.368 508.944 14.92C509.413 14.472 509.648 13.8213 509.648 12.968V11.624H513.84V15.592H517.84V19.336H513.84V26.792C513.84 27.368 513.936 27.8587 514.128 28.264C514.341 28.6693 514.661 28.9787 515.088 29.192C515.536 29.4053 516.101 29.512 516.784 29.512C516.933 29.512 517.104 29.5013 517.296 29.48C517.509 29.4587 517.712 29.4373 517.904 29.416V33C517.605 33.0427 517.264 33.0853 516.88 33.128C516.496 33.1707 516.144 33.192 515.824 33.192Z" fill="white"/>
<path d="M554.452 15.5442C552.251 13.3426 550.744 9.49804 549.997 6C549.248 9.49875 547.743 13.3441 545.542 15.5457C543.341 17.7457 539.495 19.2521 535.998 20.0012C539.497 20.7487 543.342 22.2542 545.543 24.4558C547.743 26.6566 549.25 30.502 549.998 34C550.746 30.5012 552.252 26.6559 554.452 24.4543C556.653 22.2535 560.499 20.7479 563.996 19.9988C560.498 19.2513 556.653 17.745 554.452 15.5442Z" fill="#9EFF7C"/>
<path d="M582.3 33V9.16H590.076C592.593 9.16 594.78 9.672 596.636 10.696C598.513 11.6987 599.964 13.096 600.988 14.888C602.012 16.6587 602.524 18.7173 602.524 21.064C602.524 23.3893 602.012 25.4587 600.988 27.272C599.964 29.064 598.513 30.472 596.636 31.496C594.78 32.4987 592.593 33 590.076 33H582.3ZM586.652 29.16H590.172C591.793 29.16 593.191 28.8293 594.364 28.168C595.559 27.4853 596.487 26.5467 597.148 25.352C597.809 24.136 598.14 22.7067 598.14 21.064C598.14 19.4 597.809 17.9707 597.148 16.776C596.487 15.5813 595.559 14.6533 594.364 13.992C593.191 13.3307 591.793 13 590.172 13H586.652V29.16ZM610.853 33.384C609.637 33.384 608.581 33.1813 607.685 32.776C606.789 32.3707 606.096 31.7947 605.605 31.048C605.114 30.28 604.869 29.3947 604.869 28.392C604.869 27.432 605.082 26.5787 605.509 25.832C605.936 25.064 606.597 24.424 607.493 23.912C608.389 23.4 609.52 23.0373 610.885 22.824L616.581 21.896V25.096L611.685 25.928C610.853 26.0773 610.234 26.344 609.829 26.728C609.424 27.112 609.221 27.6133 609.221 28.232C609.221 28.8293 609.445 29.3093 609.893 29.672C610.362 30.0133 610.938 30.184 611.621 30.184C612.496 30.184 613.264 30.0027 613.925 29.64C614.608 29.256 615.13 28.7333 615.493 28.072C615.877 27.4107 616.069 26.6853 616.069 25.896V21.416C616.069 20.6693 615.77 20.0507 615.173 19.56C614.597 19.048 613.829 18.792 612.869 18.792C611.973 18.792 611.173 19.0373 610.469 19.528C609.786 19.9973 609.285 20.6267 608.965 21.416L605.541 19.752C605.882 18.8347 606.416 18.0453 607.141 17.384C607.888 16.7013 608.762 16.168 609.765 15.784C610.768 15.4 611.856 15.208 613.029 15.208C614.458 15.208 615.717 15.4747 616.805 16.008C617.893 16.52 618.736 17.2453 619.333 18.184C619.952 19.1013 620.261 20.1787 620.261 21.416V33H616.293V30.024L617.189 29.96C616.741 30.7067 616.208 31.336 615.589 31.848C614.97 32.3387 614.266 32.7227 613.477 33C612.688 33.256 611.813 33.384 610.853 33.384ZM631.759 33.192C629.796 33.192 628.271 32.6587 627.183 31.592C626.116 30.504 625.583 28.9787 625.583 27.016V19.336H622.575V15.592H622.895C623.748 15.592 624.41 15.368 624.879 14.92C625.348 14.472 625.583 13.8213 625.583 12.968V11.624H629.775V15.592H633.775V19.336H629.775V26.792C629.775 27.368 629.871 27.8587 630.063 28.264C630.276 28.6693 630.596 28.9787 631.023 29.192C631.471 29.4053 632.036 29.512 632.719 29.512C632.868 29.512 633.039 29.5013 633.231 29.48C633.444 29.4587 633.647 29.4373 633.839 29.416V33C633.54 33.0427 633.199 33.0853 632.815 33.128C632.431 33.1707 632.079 33.192 631.759 33.192ZM642.259 33.384C641.043 33.384 639.987 33.1813 639.091 32.776C638.195 32.3707 637.502 31.7947 637.011 31.048C636.521 30.28 636.275 29.3947 636.275 28.392C636.275 27.432 636.489 26.5787 636.915 25.832C637.342 25.064 638.003 24.424 638.899 23.912C639.795 23.4 640.926 23.0373 642.291 22.824L647.987 21.896V25.096L643.091 25.928C642.259 26.0773 641.641 26.344 641.235 26.728C640.83 27.112 640.627 27.6133 640.627 28.232C640.627 28.8293 640.851 29.3093 641.299 29.672C641.769 30.0133 642.345 30.184 643.027 30.184C643.902 30.184 644.67 30.0027 645.331 29.64C646.014 29.256 646.537 28.7333 646.899 28.072C647.283 27.4107 647.475 26.6853 647.475 25.896V21.416C647.475 20.6693 647.177 20.0507 646.579 19.56C646.003 19.048 645.235 18.792 644.275 18.792C643.379 18.792 642.579 19.0373 641.875 19.528C641.193 19.9973 640.691 20.6267 640.371 21.416L636.947 19.752C637.289 18.8347 637.822 18.0453 638.547 17.384C639.294 16.7013 640.169 16.168 641.171 15.784C642.174 15.4 643.262 15.208 644.435 15.208C645.865 15.208 647.123 15.4747 648.211 16.008C649.299 16.52 650.142 17.2453 650.739 18.184C651.358 19.1013 651.667 20.1787 651.667 21.416V33H647.699V30.024L648.595 29.96C648.147 30.7067 647.614 31.336 646.995 31.848C646.377 32.3387 645.673 32.7227 644.883 33C644.094 33.256 643.219 33.384 642.259 33.384ZM670.093 33.384C668.579 33.384 667.171 33.1067 665.869 32.552C664.589 31.9973 663.48 31.2293 662.541 30.248C661.624 29.2453 660.952 28.0827 660.525 26.76L664.141 25.192C664.717 26.5573 665.549 27.6347 666.637 28.424C667.725 29.192 668.952 29.576 670.317 29.576C671.085 29.576 671.747 29.4587 672.301 29.224C672.877 28.968 673.315 28.6267 673.613 28.2C673.933 27.7733 674.093 27.2613 674.093 26.664C674.093 25.96 673.88 25.384 673.453 24.936C673.048 24.4667 672.429 24.104 671.597 23.848L667.021 22.376C665.165 21.8 663.768 20.936 662.829 19.784C661.891 18.632 661.421 17.2773 661.421 15.72C661.421 14.3547 661.752 13.1493 662.413 12.104C663.096 11.0587 664.035 10.248 665.229 9.672C666.445 9.07467 667.832 8.776 669.389 8.776C670.819 8.776 672.131 9.032 673.325 9.544C674.52 10.0347 675.544 10.728 676.397 11.624C677.272 12.4987 677.923 13.5333 678.349 14.728L674.765 16.328C674.296 15.1333 673.592 14.216 672.653 13.576C671.715 12.9147 670.627 12.584 669.389 12.584C668.664 12.584 668.024 12.712 667.469 12.968C666.915 13.2027 666.477 13.544 666.157 13.992C665.859 14.4187 665.709 14.9307 665.709 15.528C665.709 16.1893 665.923 16.776 666.349 17.288C666.776 17.7787 667.427 18.1627 668.301 18.44L672.685 19.816C674.584 20.4347 676.003 21.288 676.941 22.376C677.901 23.464 678.381 24.808 678.381 26.408C678.381 27.7733 678.029 28.9787 677.325 30.024C676.621 31.0693 675.651 31.8907 674.413 32.488C673.176 33.0853 671.736 33.384 670.093 33.384ZM690.332 33.384C688.604 33.384 687.047 32.9893 685.66 32.2C684.295 31.3893 683.217 30.3013 682.428 28.936C681.639 27.5493 681.244 25.992 681.244 24.264C681.244 22.536 681.639 20.9893 682.428 19.624C683.217 18.2587 684.295 17.1813 685.66 16.392C687.047 15.6027 688.604 15.208 690.332 15.208C691.569 15.208 692.721 15.432 693.788 15.88C694.855 16.3067 695.772 16.904 696.54 17.672C697.329 18.4187 697.895 19.3147 698.236 20.36L694.556 21.96C694.236 21.0853 693.692 20.3813 692.924 19.848C692.177 19.3147 691.313 19.048 690.332 19.048C689.415 19.048 688.593 19.272 687.868 19.72C687.164 20.168 686.609 20.7867 686.204 21.576C685.799 22.3653 685.596 23.272 685.596 24.296C685.596 25.32 685.799 26.2267 686.204 27.016C686.609 27.8053 687.164 28.424 687.868 28.872C688.593 29.32 689.415 29.544 690.332 29.544C691.335 29.544 692.209 29.2773 692.956 28.744C693.703 28.2107 694.236 27.496 694.556 26.6L698.236 28.264C697.895 29.2453 697.34 30.1307 696.572 30.92C695.804 31.688 694.887 32.296 693.82 32.744C692.753 33.1707 691.591 33.384 690.332 33.384ZM701.417 33V15.592H705.609V33H701.417ZM701.417 13.64V9.16H705.609V13.64H701.417ZM717.735 33.384C715.943 33.384 714.375 32.9787 713.031 32.168C711.687 31.3573 710.642 30.2587 709.895 28.872C709.149 27.4853 708.775 25.9493 708.775 24.264C708.775 22.5147 709.149 20.968 709.895 19.624C710.663 18.2587 711.698 17.1813 712.999 16.392C714.322 15.6027 715.794 15.208 717.415 15.208C718.781 15.208 719.975 15.432 720.999 15.88C722.045 16.328 722.93 16.9467 723.655 17.736C724.381 18.5253 724.935 19.432 725.319 20.456C725.703 21.4587 725.895 22.5467 725.895 23.72C725.895 24.0187 725.874 24.328 725.831 24.648C725.81 24.968 725.757 25.2453 725.671 25.48H712.231V22.28H723.303L721.319 23.784C721.511 22.8027 721.458 21.928 721.159 21.16C720.882 20.392 720.413 19.784 719.751 19.336C719.111 18.888 718.333 18.664 717.415 18.664C716.541 18.664 715.762 18.888 715.079 19.336C714.397 19.7627 713.874 20.4027 713.511 21.256C713.17 22.088 713.042 23.1013 713.127 24.296C713.042 25.3627 713.181 26.312 713.543 27.144C713.927 27.9547 714.482 28.584 715.207 29.032C715.954 29.48 716.807 29.704 717.767 29.704C718.727 29.704 719.538 29.5013 720.199 29.096C720.882 28.6907 721.415 28.1467 721.799 27.464L725.191 29.128C724.85 29.96 724.317 30.696 723.591 31.336C722.866 31.976 722.002 32.4773 720.999 32.84C720.018 33.2027 718.93 33.384 717.735 33.384ZM729.073 33V15.592H733.009V19.016L732.689 18.408C733.094 17.3627 733.756 16.5733 734.673 16.04C735.612 15.4853 736.7 15.208 737.937 15.208C739.217 15.208 740.348 15.4853 741.329 16.04C742.332 16.5947 743.11 17.3733 743.665 18.376C744.22 19.3573 744.497 20.4987 744.497 21.8V33H740.305V22.792C740.305 22.024 740.156 21.3627 739.857 20.808C739.558 20.2533 739.142 19.8267 738.609 19.528C738.097 19.208 737.489 19.048 736.785 19.048C736.102 19.048 735.494 19.208 734.961 19.528C734.428 19.8267 734.012 20.2533 733.713 20.808C733.414 21.3627 733.265 22.024 733.265 22.792V33H729.073ZM756.426 33.384C754.698 33.384 753.141 32.9893 751.754 32.2C750.389 31.3893 749.311 30.3013 748.522 28.936C747.733 27.5493 747.338 25.992 747.338 24.264C747.338 22.536 747.733 20.9893 748.522 19.624C749.311 18.2587 750.389 17.1813 751.754 16.392C753.141 15.6027 754.698 15.208 756.426 15.208C757.663 15.208 758.815 15.432 759.882 15.88C760.949 16.3067 761.866 16.904 762.634 17.672C763.423 18.4187 763.989 19.3147 764.33 20.36L760.65 21.96C760.33 21.0853 759.786 20.3813 759.018 19.848C758.271 19.3147 757.407 19.048 756.426 19.048C755.509 19.048 754.687 19.272 753.962 19.72C753.258 20.168 752.703 20.7867 752.298 21.576C751.893 22.3653 751.69 23.272 751.69 24.296C751.69 25.32 751.893 26.2267 752.298 27.016C752.703 27.8053 753.258 28.424 753.962 28.872C754.687 29.32 755.509 29.544 756.426 29.544C757.429 29.544 758.303 29.2773 759.05 28.744C759.797 28.2107 760.33 27.496 760.65 26.6L764.33 28.264C763.989 29.2453 763.434 30.1307 762.666 30.92C761.898 31.688 760.981 32.296 759.914 32.744C758.847 33.1707 757.685 33.384 756.426 33.384ZM775.767 33.384C773.975 33.384 772.407 32.9787 771.063 32.168C769.719 31.3573 768.673 30.2587 767.927 28.872C767.18 27.4853 766.807 25.9493 766.807 24.264C766.807 22.5147 767.18 20.968 767.927 19.624C768.695 18.2587 769.729 17.1813 771.031 16.392C772.353 15.6027 773.825 15.208 775.447 15.208C776.812 15.208 778.007 15.432 779.031 15.88C780.076 16.328 780.961 16.9467 781.687 17.736C782.412 18.5253 782.967 19.432 783.351 20.456C783.735 21.4587 783.927 22.5467 783.927 23.72C783.927 24.0187 783.905 24.328 783.863 24.648C783.841 24.968 783.788 25.2453 783.703 25.48H770.263V22.28H781.335L779.351 23.784C779.543 22.8027 779.489 21.928 779.191 21.16C778.913 20.392 778.444 19.784 777.783 19.336C777.143 18.888 776.364 18.664 775.447 18.664C774.572 18.664 773.793 18.888 773.111 19.336C772.428 19.7627 771.905 20.4027 771.543 21.256C771.201 22.088 771.073 23.1013 771.159 24.296C771.073 25.3627 771.212 26.312 771.575 27.144C771.959 27.9547 772.513 28.584 773.239 29.032C773.985 29.48 774.839 29.704 775.799 29.704C776.759 29.704 777.569 29.5013 778.231 29.096C778.913 28.6907 779.447 28.1467 779.831 27.464L783.223 29.128C782.881 29.96 782.348 30.696 781.623 31.336C780.897 31.976 780.033 32.4773 779.031 32.84C778.049 33.2027 776.961 33.384 775.767 33.384Z" fill="white"/>
<path d="M820.45 15.5442C818.249 13.3426 816.742 9.49804 815.995 6C815.246 9.49875 813.741 13.3441 811.54 15.5457C809.339 17.7457 805.493 19.2521 801.996 20.0012C805.495 20.7487 809.34 22.2542 811.541 24.4558C813.741 26.6566 815.248 30.502 815.996 34C816.744 30.5012 818.25 26.6559 820.45 24.4543C822.651 22.2535 826.497 20.7479 829.994 19.9988C826.496 19.2513 822.651 17.745 820.45 15.5442Z" fill="#9EFF7C"/>
<path d="M848.298 33V9.16H857.194C858.815 9.16 860.245 9.45867 861.482 10.056C862.741 10.632 863.722 11.4853 864.426 12.616C865.13 13.7253 865.482 15.08 865.482 16.68C865.482 18.2587 865.119 19.6133 864.394 20.744C863.69 21.8533 862.719 22.7067 861.482 23.304C860.245 23.9013 858.815 24.2 857.194 24.2H852.65V33H848.298ZM852.65 20.36H857.258C858.047 20.36 858.73 20.2107 859.306 19.912C859.882 19.592 860.33 19.1547 860.65 18.6C860.97 18.0453 861.13 17.4053 861.13 16.68C861.13 15.9333 860.97 15.2933 860.65 14.76C860.33 14.2053 859.882 13.7787 859.306 13.48C858.73 13.16 858.047 13 857.258 13H852.65V20.36ZM876.327 33.384C874.535 33.384 872.967 32.9787 871.623 32.168C870.279 31.3573 869.234 30.2587 868.487 28.872C867.74 27.4853 867.367 25.9493 867.367 24.264C867.367 22.5147 867.74 20.968 868.487 19.624C869.255 18.2587 870.29 17.1813 871.591 16.392C872.914 15.6027 874.386 15.208 876.007 15.208C877.372 15.208 878.567 15.432 879.591 15.88C880.636 16.328 881.522 16.9467 882.247 17.736C882.972 18.5253 883.527 19.432 883.911 20.456C884.295 21.4587 884.487 22.5467 884.487 23.72C884.487 24.0187 884.466 24.328 884.423 24.648C884.402 24.968 884.348 25.2453 884.263 25.48H870.823V22.28H881.895L879.911 23.784C880.103 22.8027 880.05 21.928 879.751 21.16C879.474 20.392 879.004 19.784 878.343 19.336C877.703 18.888 876.924 18.664 876.007 18.664C875.132 18.664 874.354 18.888 873.671 19.336C872.988 19.7627 872.466 20.4027 872.103 21.256C871.762 22.088 871.634 23.1013 871.719 24.296C871.634 25.3627 871.772 26.312 872.135 27.144C872.519 27.9547 873.074 28.584 873.799 29.032C874.546 29.48 875.399 29.704 876.359 29.704C877.319 29.704 878.13 29.5013 878.791 29.096C879.474 28.6907 880.007 28.1467 880.391 27.464L883.783 29.128C883.442 29.96 882.908 30.696 882.183 31.336C881.458 31.976 880.594 32.4773 879.591 32.84C878.61 33.2027 877.522 33.384 876.327 33.384ZM887.665 33V15.592H891.601V19.464L891.281 18.888C891.686 17.5867 892.316 16.68 893.169 16.168C894.044 15.656 895.089 15.4 896.305 15.4H897.329V19.112H895.825C894.63 19.112 893.67 19.4853 892.945 20.232C892.22 20.9573 891.857 21.9813 891.857 23.304V33H887.665ZM906.258 33.384C904.402 33.384 902.78 32.9467 901.394 32.072C900.028 31.176 899.09 29.9707 898.578 28.456L901.714 26.952C902.162 27.9333 902.78 28.7013 903.57 29.256C904.38 29.8107 905.276 30.088 906.258 30.088C907.026 30.088 907.634 29.9173 908.082 29.576C908.53 29.2347 908.754 28.7867 908.754 28.232C908.754 27.8907 908.658 27.6133 908.466 27.4C908.295 27.1653 908.05 26.9733 907.73 26.824C907.431 26.6533 907.1 26.5147 906.738 26.408L903.89 25.608C902.418 25.1813 901.298 24.5307 900.53 23.656C899.783 22.7813 899.41 21.7467 899.41 20.552C899.41 19.4853 899.676 18.5573 900.21 17.768C900.764 16.9573 901.522 16.328 902.482 15.88C903.463 15.432 904.583 15.208 905.842 15.208C907.484 15.208 908.935 15.6027 910.194 16.392C911.452 17.1813 912.348 18.2907 912.882 19.72L909.682 21.224C909.383 20.4347 908.882 19.8053 908.178 19.336C907.474 18.8667 906.684 18.632 905.81 18.632C905.106 18.632 904.551 18.792 904.146 19.112C903.74 19.432 903.538 19.848 903.538 20.36C903.538 20.68 903.623 20.9573 903.794 21.192C903.964 21.4267 904.199 21.6187 904.498 21.768C904.818 21.9173 905.18 22.056 905.586 22.184L908.37 23.016C909.799 23.4427 910.898 24.0827 911.666 24.936C912.455 25.7893 912.85 26.8347 912.85 28.072C912.85 29.1173 912.572 30.0453 912.018 30.856C911.463 31.6453 910.695 32.264 909.714 32.712C908.732 33.16 907.58 33.384 906.258 33.384ZM924.583 33.384C922.876 33.384 921.319 32.9893 919.911 32.2C918.524 31.4107 917.415 30.3333 916.583 28.968C915.772 27.6027 915.367 26.0453 915.367 24.296C915.367 22.5467 915.772 20.9893 916.583 19.624C917.415 18.2587 918.524 17.1813 919.911 16.392C921.298 15.6027 922.855 15.208 924.583 15.208C926.29 15.208 927.836 15.6027 929.223 16.392C930.61 17.1813 931.708 18.2587 932.519 19.624C933.351 20.968 933.767 22.5253 933.767 24.296C933.767 26.0453 933.351 27.6027 932.519 28.968C931.687 30.3333 930.578 31.4107 929.191 32.2C927.804 32.9893 926.268 33.384 924.583 33.384ZM924.583 29.544C925.522 29.544 926.343 29.32 927.047 28.872C927.772 28.424 928.338 27.8053 928.743 27.016C929.17 26.2053 929.383 25.2987 929.383 24.296C929.383 23.272 929.17 22.376 928.743 21.608C928.338 20.8187 927.772 20.2 927.047 19.752C926.343 19.2827 925.522 19.048 924.583 19.048C923.623 19.048 922.78 19.2827 922.055 19.752C921.33 20.2 920.754 20.8187 920.327 21.608C919.922 22.376 919.719 23.272 919.719 24.296C919.719 25.2987 919.922 26.2053 920.327 27.016C920.754 27.8053 921.33 28.424 922.055 28.872C922.78 29.32 923.623 29.544 924.583 29.544ZM936.946 33V15.592H940.882V19.016L940.562 18.408C940.967 17.3627 941.629 16.5733 942.546 16.04C943.485 15.4853 944.573 15.208 945.81 15.208C947.09 15.208 948.221 15.4853 949.202 16.04C950.205 16.5947 950.983 17.3733 951.538 18.376C952.093 19.3573 952.37 20.4987 952.37 21.8V33H948.178V22.792C948.178 22.024 948.029 21.3627 947.73 20.808C947.431 20.2533 947.015 19.8267 946.482 19.528C945.97 19.208 945.362 19.048 944.658 19.048C943.975 19.048 943.367 19.208 942.834 19.528C942.301 19.8267 941.885 20.2533 941.586 20.808C941.287 21.3627 941.138 22.024 941.138 22.792V33H936.946ZM961.195 33.384C959.979 33.384 958.923 33.1813 958.027 32.776C957.131 32.3707 956.438 31.7947 955.947 31.048C955.456 30.28 955.211 29.3947 955.211 28.392C955.211 27.432 955.424 26.5787 955.851 25.832C956.278 25.064 956.939 24.424 957.835 23.912C958.731 23.4 959.862 23.0373 961.227 22.824L966.923 21.896V25.096L962.027 25.928C961.195 26.0773 960.576 26.344 960.171 26.728C959.766 27.112 959.563 27.6133 959.563 28.232C959.563 28.8293 959.787 29.3093 960.235 29.672C960.704 30.0133 961.28 30.184 961.963 30.184C962.838 30.184 963.606 30.0027 964.267 29.64C964.95 29.256 965.472 28.7333 965.835 28.072C966.219 27.4107 966.411 26.6853 966.411 25.896V21.416C966.411 20.6693 966.112 20.0507 965.515 19.56C964.939 19.048 964.171 18.792 963.211 18.792C962.315 18.792 961.515 19.0373 960.811 19.528C960.128 19.9973 959.627 20.6267 959.307 21.416L955.883 19.752C956.224 18.8347 956.758 18.0453 957.483 17.384C958.23 16.7013 959.104 16.168 960.107 15.784C961.11 15.4 962.198 15.208 963.371 15.208C964.8 15.208 966.059 15.4747 967.147 16.008C968.235 16.52 969.078 17.2453 969.675 18.184C970.294 19.1013 970.603 20.1787 970.603 21.416V33H966.635V30.024L967.531 29.96C967.083 30.7067 966.55 31.336 965.931 31.848C965.312 32.3387 964.608 32.7227 963.819 33C963.03 33.256 962.155 33.384 961.195 33.384ZM974.477 33V8.776H978.669V33H974.477ZM988.579 33V9.16H996.355C998.873 9.16 1001.06 9.672 1002.92 10.696C1004.79 11.6987 1006.24 13.096 1007.27 14.888C1008.29 16.6587 1008.8 18.7173 1008.8 21.064C1008.8 23.3893 1008.29 25.4587 1007.27 27.272C1006.24 29.064 1004.79 30.472 1002.92 31.496C1001.06 32.4987 998.873 33 996.355 33H988.579ZM992.931 29.16H996.451C998.073 29.16 999.47 28.8293 1000.64 28.168C1001.84 27.4853 1002.77 26.5467 1003.43 25.352C1004.09 24.136 1004.42 22.7067 1004.42 21.064C1004.42 19.4 1004.09 17.9707 1003.43 16.776C1002.77 15.5813 1001.84 14.6533 1000.64 13.992C999.47 13.3307 998.073 13 996.451 13H992.931V29.16ZM1020.17 33.384C1018.38 33.384 1016.81 32.9787 1015.47 32.168C1014.12 31.3573 1013.08 30.2587 1012.33 28.872C1011.58 27.4853 1011.21 25.9493 1011.21 24.264C1011.21 22.5147 1011.58 20.968 1012.33 19.624C1013.1 18.2587 1014.13 17.1813 1015.43 16.392C1016.76 15.6027 1018.23 15.208 1019.85 15.208C1021.22 15.208 1022.41 15.432 1023.43 15.88C1024.48 16.328 1025.37 16.9467 1026.09 17.736C1026.82 18.5253 1027.37 19.432 1027.75 20.456C1028.14 21.4587 1028.33 22.5467 1028.33 23.72C1028.33 24.0187 1028.31 24.328 1028.27 24.648C1028.25 24.968 1028.19 25.2453 1028.11 25.48H1014.67V22.28H1025.74L1023.75 23.784C1023.95 22.8027 1023.89 21.928 1023.59 21.16C1023.32 20.392 1022.85 19.784 1022.19 19.336C1021.55 18.888 1020.77 18.664 1019.85 18.664C1018.98 18.664 1018.2 18.888 1017.51 19.336C1016.83 19.7627 1016.31 20.4027 1015.95 21.256C1015.61 22.088 1015.48 23.1013 1015.56 24.296C1015.48 25.3627 1015.62 26.312 1015.98 27.144C1016.36 27.9547 1016.92 28.584 1017.64 29.032C1018.39 29.48 1019.24 29.704 1020.2 29.704C1021.16 29.704 1021.97 29.5013 1022.63 29.096C1023.32 28.6907 1023.85 28.1467 1024.23 27.464L1027.63 29.128C1027.29 29.96 1026.75 30.696 1026.03 31.336C1025.3 31.976 1024.44 32.4773 1023.43 32.84C1022.45 33.2027 1021.37 33.384 1020.17 33.384ZM1036.44 33L1029.6 15.592H1034.17L1039.13 29.288H1037.44L1042.43 15.592H1047L1040.16 33H1036.44ZM1057.26 33.384C1055.47 33.384 1053.9 32.9787 1052.56 32.168C1051.22 31.3573 1050.17 30.2587 1049.42 28.872C1048.68 27.4853 1048.3 25.9493 1048.3 24.264C1048.3 22.5147 1048.68 20.968 1049.42 19.624C1050.19 18.2587 1051.23 17.1813 1052.53 16.392C1053.85 15.6027 1055.32 15.208 1056.94 15.208C1058.31 15.208 1059.5 15.432 1060.53 15.88C1061.57 16.328 1062.46 16.9467 1063.18 17.736C1063.91 18.5253 1064.46 19.432 1064.85 20.456C1065.23 21.4587 1065.42 22.5467 1065.42 23.72C1065.42 24.0187 1065.4 24.328 1065.36 24.648C1065.34 24.968 1065.29 25.2453 1065.2 25.48H1051.76V22.28H1062.83L1060.85 23.784C1061.04 22.8027 1060.99 21.928 1060.69 21.16C1060.41 20.392 1059.94 19.784 1059.28 19.336C1058.64 18.888 1057.86 18.664 1056.94 18.664C1056.07 18.664 1055.29 18.888 1054.61 19.336C1053.93 19.7627 1053.4 20.4027 1053.04 21.256C1052.7 22.088 1052.57 23.1013 1052.66 24.296C1052.57 25.3627 1052.71 26.312 1053.07 27.144C1053.46 27.9547 1054.01 28.584 1054.74 29.032C1055.48 29.48 1056.34 29.704 1057.3 29.704C1058.26 29.704 1059.07 29.5013 1059.73 29.096C1060.41 28.6907 1060.94 28.1467 1061.33 27.464L1064.72 29.128C1064.38 29.96 1063.85 30.696 1063.12 31.336C1062.4 31.976 1061.53 32.4773 1060.53 32.84C1059.55 33.2027 1058.46 33.384 1057.26 33.384ZM1068.6 33V8.776H1072.79V33H1068.6ZM1085.18 33.384C1083.47 33.384 1081.91 32.9893 1080.5 32.2C1079.12 31.4107 1078.01 30.3333 1077.18 28.968C1076.37 27.6027 1075.96 26.0453 1075.96 24.296C1075.96 22.5467 1076.37 20.9893 1077.18 19.624C1078.01 18.2587 1079.12 17.1813 1080.5 16.392C1081.89 15.6027 1083.45 15.208 1085.18 15.208C1086.88 15.208 1088.43 15.6027 1089.82 16.392C1091.2 17.1813 1092.3 18.2587 1093.11 19.624C1093.94 20.968 1094.36 22.5253 1094.36 24.296C1094.36 26.0453 1093.94 27.6027 1093.11 28.968C1092.28 30.3333 1091.17 31.4107 1089.78 32.2C1088.4 32.9893 1086.86 33.384 1085.18 33.384ZM1085.18 29.544C1086.12 29.544 1086.94 29.32 1087.64 28.872C1088.37 28.424 1088.93 27.8053 1089.34 27.016C1089.76 26.2053 1089.98 25.2987 1089.98 24.296C1089.98 23.272 1089.76 22.376 1089.34 21.608C1088.93 20.8187 1088.37 20.2 1087.64 19.752C1086.94 19.2827 1086.12 19.048 1085.18 19.048C1084.22 19.048 1083.37 19.2827 1082.65 19.752C1081.92 20.2 1081.35 20.8187 1080.92 21.608C1080.52 22.376 1080.31 23.272 1080.31 24.296C1080.31 25.2987 1080.52 26.2053 1080.92 27.016C1081.35 27.8053 1081.92 28.424 1082.65 28.872C1083.37 29.32 1084.22 29.544 1085.18 29.544ZM1097.54 39.4V15.592H1101.48V19.048L1101.09 18.184C1101.69 17.2453 1102.5 16.52 1103.52 16.008C1104.55 15.4747 1105.73 15.208 1107.08 15.208C1108.72 15.208 1110.2 15.6133 1111.52 16.424C1112.85 17.2347 1113.89 18.3227 1114.66 19.688C1115.45 21.0533 1115.84 22.5893 1115.84 24.296C1115.84 25.9813 1115.46 27.5173 1114.69 28.904C1113.92 30.2907 1112.88 31.3893 1111.56 32.2C1110.23 32.9893 1108.73 33.384 1107.04 33.384C1105.79 33.384 1104.62 33.1387 1103.56 32.648C1102.51 32.136 1101.68 31.4107 1101.06 30.472L1101.73 29.64V39.4H1097.54ZM1106.56 29.544C1107.52 29.544 1108.38 29.32 1109.12 28.872C1109.87 28.424 1110.45 27.8053 1110.85 27.016C1111.28 26.2267 1111.49 25.32 1111.49 24.296C1111.49 23.272 1111.28 22.376 1110.85 21.608C1110.45 20.8187 1109.87 20.2 1109.12 19.752C1108.38 19.2827 1107.52 19.048 1106.56 19.048C1105.65 19.048 1104.81 19.272 1104.07 19.72C1103.34 20.168 1102.77 20.7973 1102.34 21.608C1101.93 22.3973 1101.73 23.2933 1101.73 24.296C1101.73 25.32 1101.93 26.2267 1102.34 27.016C1102.77 27.8053 1103.34 28.424 1104.07 28.872C1104.81 29.32 1105.65 29.544 1106.56 29.544ZM1119.04 33V15.592H1122.98V19.624L1122.53 18.952C1122.85 17.6933 1123.49 16.7547 1124.45 16.136C1125.41 15.5173 1126.54 15.208 1127.84 15.208C1129.27 15.208 1130.53 15.5813 1131.62 16.328C1132.7 17.0747 1133.41 18.056 1133.73 19.272L1132.54 19.368C1133.08 17.9813 1133.88 16.9467 1134.94 16.264C1136.01 15.56 1137.24 15.208 1138.62 15.208C1139.86 15.208 1140.96 15.4853 1141.92 16.04C1142.9 16.5947 1143.67 17.3733 1144.22 18.376C1144.78 19.3573 1145.06 20.4987 1145.06 21.8V33H1140.86V22.792C1140.86 22.024 1140.73 21.3627 1140.45 20.808C1140.17 20.2533 1139.79 19.8267 1139.3 19.528C1138.81 19.208 1138.21 19.048 1137.5 19.048C1136.84 19.048 1136.26 19.208 1135.74 19.528C1135.23 19.8267 1134.84 20.2533 1134.56 20.808C1134.28 21.3627 1134.14 22.024 1134.14 22.792V33H1129.95V22.792C1129.95 22.024 1129.81 21.3627 1129.54 20.808C1129.26 20.2533 1128.86 19.8267 1128.35 19.528C1127.86 19.208 1127.27 19.048 1126.59 19.048C1125.93 19.048 1125.34 19.208 1124.83 19.528C1124.32 19.8267 1123.93 20.2533 1123.65 20.808C1123.37 21.3627 1123.23 22.024 1123.23 22.792V33H1119.04ZM1156.86 33.384C1155.07 33.384 1153.5 32.9787 1152.15 32.168C1150.81 31.3573 1149.77 30.2587 1149.02 28.872C1148.27 27.4853 1147.9 25.9493 1147.9 24.264C1147.9 22.5147 1148.27 20.968 1149.02 19.624C1149.79 18.2587 1150.82 17.1813 1152.12 16.392C1153.45 15.6027 1154.92 15.208 1156.54 15.208C1157.9 15.208 1159.1 15.432 1160.12 15.88C1161.17 16.328 1162.05 16.9467 1162.78 17.736C1163.5 18.5253 1164.06 19.432 1164.44 20.456C1164.83 21.4587 1165.02 22.5467 1165.02 23.72C1165.02 24.0187 1165 24.328 1164.95 24.648C1164.93 24.968 1164.88 25.2453 1164.79 25.48H1151.35V22.28H1162.43L1160.44 23.784C1160.63 22.8027 1160.58 21.928 1160.28 21.16C1160.01 20.392 1159.54 19.784 1158.87 19.336C1158.23 18.888 1157.46 18.664 1156.54 18.664C1155.66 18.664 1154.89 18.888 1154.2 19.336C1153.52 19.7627 1153 20.4027 1152.63 21.256C1152.29 22.088 1152.17 23.1013 1152.25 24.296C1152.17 25.3627 1152.3 26.312 1152.67 27.144C1153.05 27.9547 1153.61 28.584 1154.33 29.032C1155.08 29.48 1155.93 29.704 1156.89 29.704C1157.85 29.704 1158.66 29.5013 1159.32 29.096C1160.01 28.6907 1160.54 28.1467 1160.92 27.464L1164.31 29.128C1163.97 29.96 1163.44 30.696 1162.71 31.336C1161.99 31.976 1161.13 32.4773 1160.12 32.84C1159.14 33.2027 1158.05 33.384 1156.86 33.384ZM1168.2 33V15.592H1172.13V19.016L1171.81 18.408C1172.22 17.3627 1172.88 16.5733 1173.8 16.04C1174.73 15.4853 1175.82 15.208 1177.06 15.208C1178.34 15.208 1179.47 15.4853 1180.45 16.04C1181.45 16.5947 1182.23 17.3733 1182.79 18.376C1183.34 19.3573 1183.62 20.4987 1183.62 21.8V33H1179.43V22.792C1179.43 22.024 1179.28 21.3627 1178.98 20.808C1178.68 20.2533 1178.27 19.8267 1177.73 19.528C1177.22 19.208 1176.61 19.048 1175.91 19.048C1175.23 19.048 1174.62 19.208 1174.08 19.528C1173.55 19.8267 1173.13 20.2533 1172.84 20.808C1172.54 21.3627 1172.39 22.024 1172.39 22.792V33H1168.2ZM1195.1 33.192C1193.14 33.192 1191.61 32.6587 1190.52 31.592C1189.46 30.504 1188.92 28.9787 1188.92 27.016V19.336H1185.92V15.592H1186.24C1187.09 15.592 1187.75 15.368 1188.22 14.92C1188.69 14.472 1188.92 13.8213 1188.92 12.968V11.624H1193.12V15.592H1197.12V19.336H1193.12V26.792C1193.12 27.368 1193.21 27.8587 1193.4 28.264C1193.62 28.6693 1193.94 28.9787 1194.36 29.192C1194.81 29.4053 1195.38 29.512 1196.06 29.512C1196.21 29.512 1196.38 29.5013 1196.57 29.48C1196.79 29.4587 1196.99 29.4373 1197.18 29.416V33C1196.88 33.0427 1196.54 33.0853 1196.16 33.128C1195.77 33.1707 1195.42 33.192 1195.1 33.192Z" fill="white"/>
<path d="M1233.45 15.5442C1231.25 13.3426 1229.74 9.49804 1228.99 6C1228.24 9.49875 1226.74 13.3441 1224.54 15.5457C1222.34 17.7457 1218.49 19.2521 1214.99 20.0012C1218.49 20.7487 1222.34 22.2542 1224.54 24.4558C1226.74 26.6566 1228.25 30.502 1228.99 34C1229.74 30.5012 1231.25 26.6559 1233.45 24.4543C1235.65 22.2535 1239.49 20.7479 1242.99 19.9988C1239.49 19.2513 1235.65 17.745 1233.45 15.5442Z" fill="#9EFF7C"/>
<path d="M1259.34 33L1267.57 9.16H1273.2L1281.42 33H1276.69L1274.99 27.88H1265.78L1264.05 33H1259.34ZM1267.02 24.04H1273.74L1269.78 12.168H1270.99L1267.02 24.04ZM1283.73 33V15.592H1287.66V19.464L1287.34 18.888C1287.75 17.5867 1288.38 16.68 1289.23 16.168C1290.1 15.656 1291.15 15.4 1292.37 15.4H1293.39V19.112H1291.89C1290.69 19.112 1289.73 19.4853 1289.01 20.232C1288.28 20.9573 1287.92 21.9813 1287.92 23.304V33H1283.73ZM1304.1 33.192C1302.14 33.192 1300.61 32.6587 1299.52 31.592C1298.46 30.504 1297.92 28.9787 1297.92 27.016V19.336H1294.91V15.592H1295.23C1296.09 15.592 1296.75 15.368 1297.22 14.92C1297.69 14.472 1297.92 13.8213 1297.92 12.968V11.624H1302.11V15.592H1306.11V19.336H1302.11V26.792C1302.11 27.368 1302.21 27.8587 1302.4 28.264C1302.62 28.6693 1302.94 28.9787 1303.36 29.192C1303.81 29.4053 1304.38 29.512 1305.06 29.512C1305.21 29.512 1305.38 29.5013 1305.57 29.48C1305.78 29.4587 1305.99 29.4373 1306.18 29.416V33C1305.88 33.0427 1305.54 33.0853 1305.15 33.128C1304.77 33.1707 1304.42 33.192 1304.1 33.192ZM1309.38 33V15.592H1313.57V33H1309.38ZM1309.38 13.64V9.16H1313.57V13.64H1309.38ZM1319.46 33V19.336H1316.39V15.592H1319.46V15.016C1319.46 13.6933 1319.73 12.5733 1320.26 11.656C1320.81 10.7173 1321.58 10.0027 1322.56 9.512C1323.55 9.02133 1324.71 8.776 1326.05 8.776C1326.31 8.776 1326.59 8.79733 1326.88 8.84C1327.2 8.86133 1327.47 8.89333 1327.68 8.936V12.552C1327.47 12.5093 1327.27 12.488 1327.08 12.488C1326.91 12.4667 1326.75 12.456 1326.6 12.456C1325.66 12.456 1324.93 12.6693 1324.42 13.096C1323.91 13.5013 1323.65 14.1413 1323.65 15.016V15.592H1331.27V19.336H1323.65V33H1319.46ZM1329.7 33V15.592H1333.92V33H1329.7ZM1345.8 33.384C1344.07 33.384 1342.51 32.9893 1341.12 32.2C1339.76 31.3893 1338.68 30.3013 1337.89 28.936C1337.1 27.5493 1336.71 25.992 1336.71 24.264C1336.71 22.536 1337.1 20.9893 1337.89 19.624C1338.68 18.2587 1339.76 17.1813 1341.12 16.392C1342.51 15.6027 1344.07 15.208 1345.8 15.208C1347.03 15.208 1348.19 15.432 1349.25 15.88C1350.32 16.3067 1351.24 16.904 1352 17.672C1352.79 18.4187 1353.36 19.3147 1353.7 20.36L1350.02 21.96C1349.7 21.0853 1349.16 20.3813 1348.39 19.848C1347.64 19.3147 1346.78 19.048 1345.8 19.048C1344.88 19.048 1344.06 19.272 1343.33 19.72C1342.63 20.168 1342.07 20.7867 1341.67 21.576C1341.26 22.3653 1341.06 23.272 1341.06 24.296C1341.06 25.32 1341.26 26.2267 1341.67 27.016C1342.07 27.8053 1342.63 28.424 1343.33 28.872C1344.06 29.32 1344.88 29.544 1345.8 29.544C1346.8 29.544 1347.67 29.2773 1348.42 28.744C1349.17 28.2107 1349.7 27.496 1350.02 26.6L1353.7 28.264C1353.36 29.2453 1352.8 30.1307 1352.04 30.92C1351.27 31.688 1350.35 32.296 1349.28 32.744C1348.22 33.1707 1347.06 33.384 1345.8 33.384ZM1356.88 33V15.592H1361.07V33H1356.88ZM1356.88 13.64V9.16H1361.07V13.64H1356.88ZM1370.22 33.384C1369.01 33.384 1367.95 33.1813 1367.06 32.776C1366.16 32.3707 1365.47 31.7947 1364.98 31.048C1364.49 30.28 1364.24 29.3947 1364.24 28.392C1364.24 27.432 1364.45 26.5787 1364.88 25.832C1365.31 25.064 1365.97 24.424 1366.86 23.912C1367.76 23.4 1368.89 23.0373 1370.26 22.824L1375.95 21.896V25.096L1371.06 25.928C1370.22 26.0773 1369.61 26.344 1369.2 26.728C1368.79 27.112 1368.59 27.6133 1368.59 28.232C1368.59 28.8293 1368.82 29.3093 1369.26 29.672C1369.73 30.0133 1370.31 30.184 1370.99 30.184C1371.87 30.184 1372.63 30.0027 1373.3 29.64C1373.98 29.256 1374.5 28.7333 1374.86 28.072C1375.25 27.4107 1375.44 26.6853 1375.44 25.896V21.416C1375.44 20.6693 1375.14 20.0507 1374.54 19.56C1373.97 19.048 1373.2 18.792 1372.24 18.792C1371.34 18.792 1370.54 19.0373 1369.84 19.528C1369.16 19.9973 1368.66 20.6267 1368.34 21.416L1364.91 19.752C1365.25 18.8347 1365.79 18.0453 1366.51 17.384C1367.26 16.7013 1368.13 16.168 1369.14 15.784C1370.14 15.4 1371.23 15.208 1372.4 15.208C1373.83 15.208 1375.09 15.4747 1376.18 16.008C1377.26 16.52 1378.11 17.2453 1378.7 18.184C1379.32 19.1013 1379.63 20.1787 1379.63 21.416V33H1375.66V30.024L1376.56 29.96C1376.11 30.7067 1375.58 31.336 1374.96 31.848C1374.34 32.3387 1373.64 32.7227 1372.85 33C1372.06 33.256 1371.18 33.384 1370.22 33.384ZM1383.51 33V8.776H1387.7V33H1383.51ZM1397.61 33V9.16H1401.96V33H1397.61ZM1406.19 33V15.592H1410.13V19.016L1409.81 18.408C1410.22 17.3627 1410.88 16.5733 1411.79 16.04C1412.73 15.4853 1413.82 15.208 1415.06 15.208C1416.34 15.208 1417.47 15.4853 1418.45 16.04C1419.45 16.5947 1420.23 17.3733 1420.79 18.376C1421.34 19.3573 1421.62 20.4987 1421.62 21.8V33H1417.43V22.792C1417.43 22.024 1417.28 21.3627 1416.98 20.808C1416.68 20.2533 1416.26 19.8267 1415.73 19.528C1415.22 19.208 1414.61 19.048 1413.91 19.048C1413.22 19.048 1412.62 19.208 1412.08 19.528C1411.55 19.8267 1411.13 20.2533 1410.83 20.808C1410.54 21.3627 1410.39 22.024 1410.39 22.792V33H1406.19ZM1433.1 33.192C1431.14 33.192 1429.61 32.6587 1428.52 31.592C1427.46 30.504 1426.92 28.9787 1426.92 27.016V19.336H1423.91V15.592H1424.23C1425.09 15.592 1425.75 15.368 1426.22 14.92C1426.69 14.472 1426.92 13.8213 1426.92 12.968V11.624H1431.11V15.592H1435.11V19.336H1431.11V26.792C1431.11 27.368 1431.21 27.8587 1431.4 28.264C1431.62 28.6693 1431.94 28.9787 1432.36 29.192C1432.81 29.4053 1433.38 29.512 1434.06 29.512C1434.21 29.512 1434.38 29.5013 1434.57 29.48C1434.78 29.4587 1434.99 29.4373 1435.18 29.416V33C1434.88 33.0427 1434.54 33.0853 1434.15 33.128C1433.77 33.1707 1433.42 33.192 1433.1 33.192ZM1446.48 33.384C1444.69 33.384 1443.12 32.9787 1441.78 32.168C1440.43 31.3573 1439.39 30.2587 1438.64 28.872C1437.89 27.4853 1437.52 25.9493 1437.52 24.264C1437.52 22.5147 1437.89 20.968 1438.64 19.624C1439.41 18.2587 1440.44 17.1813 1441.75 16.392C1443.07 15.6027 1444.54 15.208 1446.16 15.208C1447.53 15.208 1448.72 15.432 1449.75 15.88C1450.79 16.328 1451.68 16.9467 1452.4 17.736C1453.13 18.5253 1453.68 19.432 1454.07 20.456C1454.45 21.4587 1454.64 22.5467 1454.64 23.72C1454.64 24.0187 1454.62 24.328 1454.58 24.648C1454.56 24.968 1454.5 25.2453 1454.42 25.48H1440.98V22.28H1452.05L1450.07 23.784C1450.26 22.8027 1450.2 21.928 1449.91 21.16C1449.63 20.392 1449.16 19.784 1448.5 19.336C1447.86 18.888 1447.08 18.664 1446.16 18.664C1445.29 18.664 1444.51 18.888 1443.83 19.336C1443.14 19.7627 1442.62 20.4027 1442.26 21.256C1441.92 22.088 1441.79 23.1013 1441.87 24.296C1441.79 25.3627 1441.93 26.312 1442.29 27.144C1442.67 27.9547 1443.23 28.584 1443.95 29.032C1444.7 29.48 1445.55 29.704 1446.51 29.704C1447.47 29.704 1448.28 29.5013 1448.95 29.096C1449.63 28.6907 1450.16 28.1467 1450.55 27.464L1453.94 29.128C1453.6 29.96 1453.06 30.696 1452.34 31.336C1451.61 31.976 1450.75 32.4773 1449.75 32.84C1448.76 33.2027 1447.68 33.384 1446.48 33.384ZM1457.82 33V8.776H1462.01V33H1457.82ZM1465.88 33V8.776H1470.07V33H1465.88ZM1473.94 33V15.592H1478.14V33H1473.94ZM1473.94 13.64V9.16H1478.14V13.64H1473.94ZM1490.45 40.04C1489.15 40.04 1487.95 39.8267 1486.84 39.4C1485.73 38.9733 1484.77 38.376 1483.96 37.608C1483.17 36.8613 1482.59 35.976 1482.23 34.952L1486.13 33.48C1486.39 34.2907 1486.89 34.9413 1487.64 35.432C1488.41 35.944 1489.35 36.2 1490.45 36.2C1491.31 36.2 1492.05 36.04 1492.69 35.72C1493.36 35.4 1493.87 34.9307 1494.23 34.312C1494.59 33.7147 1494.77 32.9893 1494.77 32.136V28.168L1495.57 29.128C1494.98 30.1733 1494.18 30.9627 1493.17 31.496C1492.17 32.0293 1491.03 32.296 1489.75 32.296C1488.13 32.296 1486.68 31.9227 1485.4 31.176C1484.12 30.4293 1483.12 29.4053 1482.39 28.104C1481.67 26.8027 1481.3 25.3413 1481.3 23.72C1481.3 22.0773 1481.67 20.616 1482.39 19.336C1483.12 18.056 1484.11 17.0533 1485.37 16.328C1486.63 15.5813 1488.05 15.208 1489.65 15.208C1490.96 15.208 1492.1 15.4853 1493.08 16.04C1494.08 16.5733 1494.91 17.352 1495.57 18.376L1495 19.432V15.592H1498.97V32.136C1498.97 33.6507 1498.59 35.0053 1497.85 36.2C1497.12 37.3947 1496.12 38.3333 1494.84 39.016C1493.58 39.6987 1492.12 40.04 1490.45 40.04ZM1490.26 28.424C1491.16 28.424 1491.94 28.232 1492.6 27.848C1493.28 27.4427 1493.81 26.888 1494.2 26.184C1494.58 25.48 1494.77 24.6693 1494.77 23.752C1494.77 22.856 1494.57 22.056 1494.17 21.352C1493.78 20.6267 1493.25 20.0613 1492.57 19.656C1491.91 19.2507 1491.14 19.048 1490.26 19.048C1489.39 19.048 1488.6 19.2507 1487.89 19.656C1487.19 20.0613 1486.64 20.6267 1486.23 21.352C1485.85 22.056 1485.65 22.856 1485.65 23.752C1485.65 24.648 1485.85 25.448 1486.23 26.152C1486.64 26.856 1487.18 27.4107 1487.86 27.816C1488.57 28.2213 1489.37 28.424 1490.26 28.424ZM1511.14 33.384C1509.35 33.384 1507.78 32.9787 1506.43 32.168C1505.09 31.3573 1504.04 30.2587 1503.3 28.872C1502.55 27.4853 1502.18 25.9493 1502.18 24.264C1502.18 22.5147 1502.55 20.968 1503.3 19.624C1504.07 18.2587 1505.1 17.1813 1506.4 16.392C1507.72 15.6027 1509.2 15.208 1510.82 15.208C1512.18 15.208 1513.38 15.432 1514.4 15.88C1515.45 16.328 1516.33 16.9467 1517.06 17.736C1517.78 18.5253 1518.34 19.432 1518.72 20.456C1519.11 21.4587 1519.3 22.5467 1519.3 23.72C1519.3 24.0187 1519.28 24.328 1519.23 24.648C1519.21 24.968 1519.16 25.2453 1519.07 25.48H1505.63V22.28H1516.71L1514.72 23.784C1514.91 22.8027 1514.86 21.928 1514.56 21.16C1514.28 20.392 1513.82 19.784 1513.15 19.336C1512.51 18.888 1511.74 18.664 1510.82 18.664C1509.94 18.664 1509.16 18.888 1508.48 19.336C1507.8 19.7627 1507.28 20.4027 1506.91 21.256C1506.57 22.088 1506.44 23.1013 1506.53 24.296C1506.44 25.3627 1506.58 26.312 1506.95 27.144C1507.33 27.9547 1507.88 28.584 1508.61 29.032C1509.36 29.48 1510.21 29.704 1511.17 29.704C1512.13 29.704 1512.94 29.5013 1513.6 29.096C1514.28 28.6907 1514.82 28.1467 1515.2 27.464L1518.59 29.128C1518.25 29.96 1517.72 30.696 1516.99 31.336C1516.27 31.976 1515.4 32.4773 1514.4 32.84C1513.42 33.2027 1512.33 33.384 1511.14 33.384ZM1522.48 33V15.592H1526.41V19.016L1526.09 18.408C1526.5 17.3627 1527.16 16.5733 1528.08 16.04C1529.01 15.4853 1530.1 15.208 1531.34 15.208C1532.62 15.208 1533.75 15.4853 1534.73 16.04C1535.73 16.5947 1536.51 17.3733 1537.07 18.376C1537.62 19.3573 1537.9 20.4987 1537.9 21.8V33H1533.71V22.792C1533.71 22.024 1533.56 21.3627 1533.26 20.808C1532.96 20.2533 1532.54 19.8267 1532.01 19.528C1531.5 19.208 1530.89 19.048 1530.19 19.048C1529.5 19.048 1528.9 19.208 1528.36 19.528C1527.83 19.8267 1527.41 20.2533 1527.12 20.808C1526.82 21.3627 1526.67 22.024 1526.67 22.792V33H1522.48ZM1549.83 33.384C1548.1 33.384 1546.54 32.9893 1545.16 32.2C1543.79 31.3893 1542.71 30.3013 1541.92 28.936C1541.13 27.5493 1540.74 25.992 1540.74 24.264C1540.74 22.536 1541.13 20.9893 1541.92 19.624C1542.71 18.2587 1543.79 17.1813 1545.16 16.392C1546.54 15.6027 1548.1 15.208 1549.83 15.208C1551.07 15.208 1552.22 15.432 1553.28 15.88C1554.35 16.3067 1555.27 16.904 1556.04 17.672C1556.83 18.4187 1557.39 19.3147 1557.73 20.36L1554.05 21.96C1553.73 21.0853 1553.19 20.3813 1552.42 19.848C1551.67 19.3147 1550.81 19.048 1549.83 19.048C1548.91 19.048 1548.09 19.272 1547.36 19.72C1546.66 20.168 1546.11 20.7867 1545.7 21.576C1545.29 22.3653 1545.09 23.272 1545.09 24.296C1545.09 25.32 1545.29 26.2267 1545.7 27.016C1546.11 27.8053 1546.66 28.424 1547.36 28.872C1548.09 29.32 1548.91 29.544 1549.83 29.544C1550.83 29.544 1551.71 29.2773 1552.45 28.744C1553.2 28.2107 1553.73 27.496 1554.05 26.6L1557.73 28.264C1557.39 29.2453 1556.84 30.1307 1556.07 30.92C1555.3 31.688 1554.38 32.296 1553.32 32.744C1552.25 33.1707 1551.09 33.384 1549.83 33.384ZM1569.17 33.384C1567.38 33.384 1565.81 32.9787 1564.46 32.168C1563.12 31.3573 1562.08 30.2587 1561.33 28.872C1560.58 27.4853 1560.21 25.9493 1560.21 24.264C1560.21 22.5147 1560.58 20.968 1561.33 19.624C1562.1 18.2587 1563.13 17.1813 1564.43 16.392C1565.76 15.6027 1567.23 15.208 1568.85 15.208C1570.21 15.208 1571.41 15.432 1572.43 15.88C1573.48 16.328 1574.36 16.9467 1575.09 17.736C1575.81 18.5253 1576.37 19.432 1576.75 20.456C1577.14 21.4587 1577.33 22.5467 1577.33 23.72C1577.33 24.0187 1577.31 24.328 1577.26 24.648C1577.24 24.968 1577.19 25.2453 1577.1 25.48H1563.66V22.28H1574.74L1572.75 23.784C1572.94 22.8027 1572.89 21.928 1572.59 21.16C1572.32 20.392 1571.85 19.784 1571.18 19.336C1570.54 18.888 1569.77 18.664 1568.85 18.664C1567.97 18.664 1567.2 18.888 1566.51 19.336C1565.83 19.7627 1565.31 20.4027 1564.94 21.256C1564.6 22.088 1564.48 23.1013 1564.56 24.296C1564.48 25.3627 1564.61 26.312 1564.98 27.144C1565.36 27.9547 1565.92 28.584 1566.64 29.032C1567.39 29.48 1568.24 29.704 1569.2 29.704C1570.16 29.704 1570.97 29.5013 1571.63 29.096C1572.32 28.6907 1572.85 28.1467 1573.23 27.464L1576.62 29.128C1576.28 29.96 1575.75 30.696 1575.02 31.336C1574.3 31.976 1573.44 32.4773 1572.43 32.84C1571.45 33.2027 1570.36 33.384 1569.17 33.384Z" fill="white"/>
<path d="M1613.45 15.5442C1611.24 13.3426 1609.74 9.49804 1608.99 6C1608.24 9.49875 1606.74 13.3441 1604.54 15.5457C1602.34 17.7457 1598.49 19.2521 1594.99 20.0012C1598.49 20.7487 1602.34 22.2542 1604.54 24.4558C1606.74 26.6566 1608.24 30.502 1608.99 34C1609.74 30.5012 1611.25 26.6559 1613.45 24.4543C1615.65 22.2535 1619.49 20.7479 1622.99 19.9988C1619.49 19.2513 1615.65 17.745 1613.45 15.5442Z" fill="#9EFF7C"/>
</svg>
